<svg width="50" height="50" viewBox="0 0 50 50" fill="none" xmlns="http://www.w3.org/2000/svg">
  <path id='check' d="M10.6 15.508L16.996 9.112L16.289 8.404L10.6 14.092L7.75 11.242L7.042 11.95L10.6 15.508ZM5.616 20C5.15533 20 4.771 19.846 4.463 19.538C4.155 19.23 4.00067 18.8453 4 18.384V5.616C4 5.15533 4.15433 4.771 4.463 4.463C4.77167 4.155 5.156 4.00067 5.616 4H18.385C18.845 4 19.2293 4.15433 19.538 4.463C19.8467 4.77167 20.0007 5.156 20 5.616V18.385C20 18.845 19.846 19.2293 19.538 19.538C19.23 19.8467 18.8453 20.0007 18.384 20H5.616ZM5.616 19H18.385C18.5383 19 18.6793 18.936 18.808 18.808C18.9367 18.68 19.0007 18.5387 19 18.384V5.616C19 5.462 18.936 5.32067 18.808 5.192C18.68 5.06333 18.5387 4.99933 18.384 5H5.616C5.462 5 5.32067 5.064 5.192 5.192C5.06333 5.32 4.99933 5.46133 5 5.616V18.385C5 18.5383 5.064 18.6793 5.192 18.808C5.32 18.9367 5.461 19.0007 5.615 19" fill="currentColor"/>

  <path id="logoHome" d="M27.0613 13.9387L17.0613 3.93874C16.9219 3.7989 16.7563 3.68795 16.574 3.61224C16.3917 3.53653 16.1962 3.49756 15.9988 3.49756C15.8013 3.49756 15.6059 3.53653 15.4235 3.61224C15.2412 3.68795 15.0756 3.7989 14.9363 3.93874L4.93625 13.9387C4.65594 14.2207 4.49903 14.6024 4.5 15V27C4.5 27.1326 4.55268 27.2598 4.64645 27.3535C4.74022 27.4473 4.8674 27.5 5 27.5H27C27.1326 27.5 27.2598 27.4473 27.3536 27.3535C27.4473 27.2598 27.5 27.1326 27.5 27V15C27.5002 14.803 27.4615 14.6078 27.3862 14.4257C27.3109 14.2436 27.2005 14.0781 27.0613 13.9387ZM26.5 26.5H5.5V15C5.49995 14.9343 5.51284 14.8693 5.53794 14.8086C5.56303 14.7479 5.59984 14.6927 5.64625 14.6462L15.6463 4.64624C15.6927 4.59975 15.7478 4.56287 15.8085 4.53771C15.8692 4.51255 15.9343 4.4996 16 4.4996C16.0657 4.4996 16.1308 4.51255 16.1915 4.53771C16.2522 4.56287 16.3073 4.59975 16.3538 4.64624L26.3538 14.6462C26.4002 14.6927 26.437 14.7479 26.4621 14.8086C26.4872 14.8693 26.5001 14.9343 26.5 15V26.5Z" fill="black"/>

</svg>